<?xml version="1.0" encoding="utf-8"?>
<!-- Generator: Adobe Illustrator 24.1.2, SVG Export Plug-In . SVG Version: 6.00 Build 0)  -->
<svg version="1.1" id="Layer_1" xmlns="http://www.w3.org/2000/svg" xmlns:xlink="http://www.w3.org/1999/xlink" x="0px" y="0px"
	 viewBox="0 0 504.2 531.5" style="enable-background:new 0 0 504.2 531.5;" xml:space="preserve">
<g>
	<path d="M475.6,101.4C350.1,85.7,278.5,12.9,275.7,10.1c-6.7-7.3-16.8-10.6-26.3-10.1c-7.8,0.6-15.1,4.5-20.7,10.1
		c-0.6,0.6-72.2,75-199.4,91.3c-17.4,2.2-30.8,17.9-29.1,35.3c20.7,288.4,229.6,388.1,238.6,392c4.5,2.2,9,2.8,13.4,2.8
		c4.5,0,9.5-1.1,13.4-2.8c9-3.9,217.8-103.6,238.6-392.6C505.3,119.3,492.4,103.7,475.6,101.4L475.6,101.4z M343.4,335.5
		c0,13.4-11.2,24.6-24.6,24.6l-133.8,0c-13.4,0-24.6-11.2-24.6-24.6v-87.9c0-13.4,11.2-24.6,24.6-24.6h7.3v-38.6
		c0-33,26.9-59.4,59.4-59.4s59.4,26.9,59.4,59.4v38.6h8.4c13.4,0,24.6,11.2,24.6,24.6v87.9L343.4,335.5z"/>
	<path d="M285.7,184.9c0-18.5-15.1-33.6-33.6-33.6s-33.6,15.1-33.6,33.6v38.6h67.2L285.7,184.9z"/>
	<path d="M273.4,263.8l-28,28l-14-14c-5-5-13.4-5-18.5,0c-5.6,5-5.6,13.4,0,18.5l23.5,23.5c2.8,2.8,5.6,3.9,9,3.9s6.7-1.1,9-3.9
		l37-37c5-5,5-13.4,0-18.5C286.3,258.8,278.5,258.8,273.4,263.8L273.4,263.8z"/>
</g>
</svg>
