<?xml version="1.0" encoding="utf-8"?>
<!-- Generator: Adobe Illustrator 24.1.2, SVG Export Plug-In . SVG Version: 6.00 Build 0)  -->
<svg version="1.1" id="Layer_1" xmlns="http://www.w3.org/2000/svg" xmlns:xlink="http://www.w3.org/1999/xlink" x="0px" y="0px"
	 viewBox="0 0 353 359" style="enable-background:new 0 0 353 359;" xml:space="preserve">
<style type="text/css">
	.st0{fill:url(#SVGID_1_);stroke:#FFFFFF;stroke-miterlimit:10;}
	.st1{fill:url(#SVGID_2_);stroke:#FFFFFF;stroke-miterlimit:10;}
	.st2{fill:url(#SVGID_3_);stroke:#FFFFFF;stroke-miterlimit:10;}
	.st3{fill:url(#SVGID_4_);stroke:#FFFFFF;stroke-miterlimit:10;}
	.st4{fill:url(#SVGID_5_);stroke:#FFFFFF;stroke-miterlimit:10;}
	.st5{fill:url(#SVGID_6_);stroke:#FFFFFF;stroke-miterlimit:10;}
	.st6{fill:url(#SVGID_7_);stroke:#FFFFFF;stroke-miterlimit:10;}
	.st7{fill:url(#SVGID_8_);stroke:#FFFFFF;stroke-miterlimit:10;}
	.st8{fill:url(#SVGID_9_);stroke:#FFFFFF;stroke-miterlimit:10;}
</style>
<linearGradient id="SVGID_1_" gradientUnits="userSpaceOnUse" x1="-137.7933" y1="-122.7756" x2="404.2067" y2="376.2244">
	<stop  offset="0" style="stop-color:#1F2937"/>
	<stop  offset="1.939435e-02" style="stop-color:#1E2836"/>
	<stop  offset="1" style="stop-color:#00B5E7"/>
</linearGradient>
<path class="st0" d="M93,0H10C4.5,0,0,4.5,0,10v83c0,5.5,4.5,10,10,10h83c5.5,0,10-4.5,10-10V10C103,4.5,98.5,0,93,0z M84,84H20V20
	h64V84z"/>
<linearGradient id="SVGID_2_" gradientUnits="userSpaceOnUse" x1="-80.4478" y1="-185.0627" x2="461.5522" y2="313.9373">
	<stop  offset="0" style="stop-color:#1F2937"/>
	<stop  offset="1" style="stop-color:#00B5E7"/>
</linearGradient>
<path class="st1" d="M218,0h-83c-5.5,0-10,4.5-10,10v83c0,5.5,4.5,10,10,10h83c5.5,0,10-4.5,10-10V10C228,4.5,223.5,0,218,0z
	 M209,84h-64V20h64V84z"/>
<linearGradient id="SVGID_3_" gradientUnits="userSpaceOnUse" x1="-200.5787" y1="-54.5798" x2="341.4213" y2="444.4202">
	<stop  offset="0" style="stop-color:#1F2937"/>
	<stop  offset="1" style="stop-color:#00B5E7"/>
</linearGradient>
<path class="st2" d="M93,126H10c-5.5,0-10,4.5-10,10v83c0,5.5,4.5,10,10,10h83c5.5,0,10-4.5,10-10v-83C103,130.5,98.5,126,93,126z
	 M84,209H20v-63h64V209z"/>
<linearGradient id="SVGID_4_" gradientUnits="userSpaceOnUse" x1="-143.2332" y1="-116.8669" x2="398.7668" y2="382.1331">
	<stop  offset="0" style="stop-color:#1F2937"/>
	<stop  offset="1.505855e-02" style="stop-color:#1F2937"/>
	<stop  offset="1" style="stop-color:#00B5E7"/>
</linearGradient>
<path class="st3" d="M218,126h-83c-5.5,0-10,4.5-10,10v83c0,5.5,4.5,10,10,10h83c5.5,0,10-4.5,10-10v-83
	C228,130.5,223.5,126,218,126z M209,209h-64v-63h64V209z"/>
<linearGradient id="SVGID_5_" gradientUnits="userSpaceOnUse" x1="-23.1023" y1="-247.3498" x2="518.8976" y2="251.6502">
	<stop  offset="0" style="stop-color:#1F2937"/>
	<stop  offset="1" style="stop-color:#00B5E7"/>
</linearGradient>
<path class="st4" d="M343,0h-83c-5.5,0-10,4.5-10,10v83c0,5.5,4.5,10,10,10h83c5.5,0,10-4.5,10-10V10C353,4.5,348.5,0,343,0z
	 M334,84h-64V20h64V84z"/>
<linearGradient id="SVGID_6_" gradientUnits="userSpaceOnUse" x1="-85.8877" y1="-179.154" x2="456.1123" y2="319.846">
	<stop  offset="0" style="stop-color:#1F2937"/>
	<stop  offset="1" style="stop-color:#00B5E7"/>
</linearGradient>
<path class="st5" d="M343,126h-83c-5.5,0-10,4.5-10,10v83c0,5.5,4.5,10,10,10h83c5.5,0,10-4.5,10-10v-83
	C353,130.5,348.5,126,343,126z M334,209h-64v-63h64V209z"/>
<linearGradient id="SVGID_7_" gradientUnits="userSpaceOnUse" x1="-265.3573" y1="15.7808" x2="276.6427" y2="514.7808">
	<stop  offset="0" style="stop-color:#1F2937"/>
	<stop  offset="1" style="stop-color:#00B5E7"/>
</linearGradient>
<path class="st6" d="M93,256H10c-5.5,0-10,4.5-10,10v83c0,5.5,4.5,10,10,10h83c5.5,0,10-4.5,10-10v-83C103,260.5,98.5,256,93,256z
	 M84,340H20v-64h64V340z"/>
<linearGradient id="SVGID_8_" gradientUnits="userSpaceOnUse" x1="-208.0118" y1="-46.5062" x2="333.9882" y2="452.4938">
	<stop  offset="0" style="stop-color:#1F2937"/>
	<stop  offset="1" style="stop-color:#00B5E7"/>
</linearGradient>
<path class="st7" d="M218,256h-83c-5.5,0-10,4.5-10,10v83c0,5.5,4.5,10,10,10h83c5.5,0,10-4.5,10-10v-83
	C228,260.5,223.5,256,218,256z M209,340h-64v-64h64V340z"/>
<linearGradient id="SVGID_9_" gradientUnits="userSpaceOnUse" x1="-150.6663" y1="-108.7933" x2="391.3337" y2="390.2067">
	<stop  offset="0" style="stop-color:#1F2937"/>
	<stop  offset="1" style="stop-color:#00B5E7"/>
</linearGradient>
<path class="st8" d="M343,256h-83c-5.5,0-10,4.5-10,10v83c0,5.5,4.5,10,10,10h83c5.5,0,10-4.5,10-10v-83
	C353,260.5,348.5,256,343,256z M334,340h-64v-64h64V340z"/>
</svg>
