<?xml version="1.0" encoding="utf-8"?>
<!-- Generator: Adobe Illustrator 24.1.2, SVG Export Plug-In . SVG Version: 6.00 Build 0)  -->
<svg version="1.1" id="Layer_1" xmlns="http://www.w3.org/2000/svg" xmlns:xlink="http://www.w3.org/1999/xlink" x="0px" y="0px"
	 viewBox="0 0 459.2 431.2" style="enable-background:new 0 0 459.2 431.2;" xml:space="preserve">
<g>
	<path d="M183.1,150.6l-30.8-42c-1.7-2.2-1.1-6.2,1.1-7.8c2.2-1.7,6.2-1.1,7.8,1.1l30.8,42c1.7,2.8,1.1,6.2-1.7,7.8
		C188.2,153.4,184.8,152.9,183.1,150.6L183.1,150.6z M305.8,100.8c-2.8-1.7-6.2-1.1-7.8,1.1l-30.8,42c-1.7,2.8-1.1,6.2,1.7,7.8
		c2.2,1.7,5.6,1.1,7.8-1.1l30.8-42C308.6,105.8,308,102.5,305.8,100.8z M348.9,238l-44.2-14c-2.8-1.1-6.2,0.6-7.3,3.9
		c-0.6,2.8,1.1,5.6,3.9,6.7l44.2,14.6c2.8,1.1,6.2-0.6,6.7-3.4C353.4,242.5,351.7,239.1,348.9,238L348.9,238z M229.6,330.4
		c2.8,0,5.6-2.2,5.6-5.6v-43.1c0-3.4-2.2-5.6-5.6-5.6c-3.4,0-5.6,2.2-5.6,5.6v43.1C224,328.2,226.2,330.4,229.6,330.4z M161.8,227.9
		c-0.6-3.4-3.9-5-7.3-3.9l-44.2,14.6c-2.8,1.1-4.5,3.9-3.4,6.7c1.1,2.8,3.9,4.5,6.7,3.4l44.2-14.6
		C160.7,233.5,162.4,230.7,161.8,227.9L161.8,227.9z M95.2,42.6V11.2c0-6.2,5-11.2,11.2-11.2h56c6.2,0,11.2,5,11.2,11.2v31.4
		c0,6.2-5,11.2-11.2,11.2l-56,0C100.2,54.3,95.2,49.3,95.2,42.6L95.2,42.6z M106.4,42.6L106.4,42.6h56V11.2h-56V42.6z M179.2,71.1
		c0-3.4-2.2-5.6-5.6-5.6H95.2c-3.4,0-5.6,2.2-5.6,5.6c0,3.4,2.2,5.6,5.6,5.6h78.4C177,76.7,179.2,73.9,179.2,71.1z M201.6,354.5h56
		c6.2,0,11.2,5,11.2,11.2v31.9c0,6.2-5,11.2-11.2,11.2h-56c-6.2,0-11.2-5-11.2-11.2v-31.4C190.4,359.5,195.4,354.5,201.6,354.5z
		 M257.6,365.7h-56v31.9h56V365.7z M268.8,420h-78.4c-3.4,0-5.6,2.2-5.6,5.6c0,3.4,2.2,5.6,5.6,5.6h78.4c3.4,0,5.6-2.2,5.6-5.6
		C274.4,422.2,272.2,420,268.8,420z M375.2,266.6v-31.4c0-6.2,5-11.2,11.2-11.2h56c6.2,0,11.2,5,11.2,11.2v31.4
		c0,6.2-5,11.2-11.2,11.2l-56,0C380.2,278.3,375.2,273.3,375.2,266.6L375.2,266.6z M386.4,266.6L386.4,266.6h56v-31.4h-56
		L386.4,266.6z M453.6,289.5h-78.4c-3.4,0-5.6,2.2-5.6,5.6c0,3.4,2.2,5.6,5.6,5.6h78.4c3.4,0,5.6-2.2,5.6-5.6
		C459.2,291.8,457,289.5,453.6,289.5z M5.6,274.4V243c0-6.2,5-11.2,11.2-11.2l56,0c6.2,0,11.2,5,11.2,11.2v31.4
		c0,6.2-5,11.2-11.2,11.2h-56C10.6,285.6,5.6,280.6,5.6,274.4L5.6,274.4z M16.8,274.4h56V243l-56,0V274.4z M84,296.8H5.6
		c-3.4,0-5.6,2.2-5.6,5.6c0,3.4,2.2,5.6,5.6,5.6H84c3.4,0,5.6-2.2,5.6-5.6C89.6,299,87.4,296.8,84,296.8z M285.6,42.6V11.2
		c0-6.2,5-11.2,11.2-11.2h56C359,0,364,5,364,11.2v31.4c0,6.2-5,11.2-11.2,11.2l-56,0C290.6,54.3,285.6,49.3,285.6,42.6L285.6,42.6z
		 M296.8,42.6L296.8,42.6h56V11.2h-56V42.6z M364,65.5h-78.4c-3.4,0-5.6,2.2-5.6,5.6c0,3.4,2.2,5.6,5.6,5.6H364
		c3.4,0,5.6-2.2,5.6-5.6C369.6,67.8,367.4,65.5,364,65.5z M190.4,182.6c0-6.2,5-11.2,11.2-11.2l56,0c6.2,0,11.2,5,11.2,11.2v31.4
		c0,6.2-5,11.2-11.2,11.2l-56,0c-6.2,0-11.2-5-11.2-11.2V182.6z M201.6,213.9h56v-31.4h-56V213.9z M268.8,236.3h-78.4
		c-3.4,0-5.6,2.2-5.6,5.6c0,3.4,2.2,5.6,5.6,5.6h78.4c3.4,0,5.6-2.2,5.6-5.6C274.4,238.6,272.2,236.3,268.8,236.3z"/>
</g>
</svg>
