<?xml version="1.0" encoding="utf-8"?>
<!-- Generator: Adobe Illustrator 24.1.2, SVG Export Plug-In . SVG Version: 6.00 Build 0)  -->
<svg version="1.1" id="Layer_1" xmlns="http://www.w3.org/2000/svg" xmlns:xlink="http://www.w3.org/1999/xlink" x="0px" y="0px"
	 viewBox="0 0 400.6 472.2" style="enable-background:new 0 0 400.6 472.2;" xml:space="preserve">
<g>
	<path d="M94.8,197v-19.2c0-3.4-1.4-6.5-3.6-8.7c-2.2-2.2-5.3-3.6-8.7-3.6c-3.4,0-6.5,1.4-8.7,3.6c-1.4,1.4-2.5,3.2-3.1,5.2
		c-0.3,3.8-0.5,7.5-0.6,11.4v30.3c0,3.4,1.4,6.5,3.6,8.7c2.3,2.2,5.4,3.6,8.8,3.6c3.4,0,6.4-1.4,8.7-3.6l0.3-0.3
		c2-2.2,3.3-5.2,3.3-8.4L94.8,197L94.8,197z M170.9,58.6c2.1-8.1,10.4-12.8,18.5-10.7c6.7,1.8,11.1,7.8,11.2,14.3v10.4
		c0,16.5-6.4,30.9-16.6,41.3c-10.6,10.9-25.3,17.4-40.9,17.4c-4.2,0-7.6-3.4-7.6-7.6c0-4.2,3.4-7.6,7.6-7.6
		c11.5,0,22.3-4.8,30.1-12.7c2.6-2.7,4.9-5.7,6.7-9c-2,1.2-4.1,2.4-6.3,3.3c-10.5,4.8-22,5.8-31.7,5.8H91.6
		c-6.3,11-11.3,23.1-14.9,36c-1.1,4-2.1,8.1-3,12.2c2.7-0.9,5.7-1.4,8.7-1.4c7.6,0,14.4,3.1,19.4,8.1s8.1,11.9,8.1,19.4v11.5h35.6
		c4.2,0,7.6,3.4,7.6,7.6c0,4.1-3.4,7.6-7.6,7.6h-35.6v11.5c0,7.3-2.9,14-7.6,18.9l-0.4,0.4c-5,5-11.8,8.1-19.4,8.1
		c-7.6,0-14.4-3.1-19.4-8.1c-4.4-4.4-7.4-10.4-8-17L33.2,255c-2,3.4-2.9,6.6-2.9,9.5c0,2.5,0.7,4.9,1.8,6.8c1.2,2.1,3,3.8,4.9,4.9
		c1.8,1.1,3.9,1.7,5.9,1.7h27.1v56.9c0,12.2,5.1,23.5,13.4,31.8c8.2,8.2,19.4,13.4,31.7,13.4h56.2V442h142.6V256.8
		c0-7.1-2.9-13.6-7.6-18.3c-4.7-4.7-11.2-7.6-18.3-7.6h-15.8l-0.9-0.1l-0.9,0.1h-20c-21.3,0-41.3-8.8-55.8-23.6
		C180.8,193.1,172,173.6,172,151v-5c0-8.3,6.8-15.1,15.1-15.1s15.1,6.8,15.1,15.1v5c0,14.2,5.4,26.4,13.9,35.2
		c8.8,9.1,21.1,14.4,34.2,14.4H288c15.4,0,29.4,6.3,39.5,16.5c10.2,10.2,16.6,24.2,16.6,39.6v39.5c1.2,3.2,3.5,5.9,6.2,7.6l0.6,0.3
		c3.4,2,7.7,2.6,11.9,1.5c8.1-2.1,16.4,2.6,18.5,10.7c2.1,8.1-2.6,16.4-10.7,18.5c-9,2.4-18.2,2-26.5-0.8v138.2H141.1v-61.9h-25.9
		c-20.6,0-39.4-8.6-53-22.3c-13.8-13.7-22.3-32.6-22.3-53.1v-26.8c-6.5-0.5-12.7-2.6-18.3-5.9c-6.2-3.7-11.6-9-15.4-15.5
		c-3.8-6.4-6.1-14-6.1-22.2c0-8,2.2-16.5,7.3-25L39.8,185c0.3-18.6,3-36.6,7.8-53.6c5-18,12.5-34.9,22.2-50.1c2.5-4.7,7.6-8,13.3-8
		H142c6.5,0,13.8-0.6,19.4-3.1C165.7,68.3,169.2,64.9,170.9,58.6L170.9,58.6z M63.9,67c-6.4,5.3-15.8,4.4-21.2-2
		c-5.3-6.4-4.4-15.9,2-21.2C58.8,32,77.8,20.9,104.2,12.9C129.9,5,162.7,0,204.9,0c45.2,0,95.5,11.3,131.6,38.8
		c30.1,22.8,50.4,56.4,50.4,103.2v117.1c0.2,0.3,0.4,0.7,0.7,1c0.7,0.7,1.5,1.2,2.4,1.4c8,2.5,12.4,10.9,10,18.8
		c-2.4,8-10.8,12.4-18.8,10c-5.8-1.7-11-4.9-15.2-9.2c-3.8-3.9-6.7-8.7-8.4-14.2l-0.1-0.2c-0.6-1.6-0.8-3.3-0.8-5V142
		c0-36.1-15.5-61.8-38.4-79.2c-30.2-23-73.7-32.5-113.4-32.5c-39.3,0-69.1,4.5-92,11.4C90.9,48.5,75.3,57.5,63.9,67L63.9,67z"/>
</g>
</svg>
