<?xml version="1.0" encoding="utf-8"?>
<!-- Generator: Adobe Illustrator 24.1.2, SVG Export Plug-In . SVG Version: 6.00 Build 0)  -->
<svg version="1.1" id="Layer_1" xmlns="http://www.w3.org/2000/svg" xmlns:xlink="http://www.w3.org/1999/xlink" x="0px" y="0px"
	 viewBox="0 0 529.5 543.6" style="enable-background:new 0 0 529.5 543.6;" xml:space="preserve">
<g>
	<path d="M521,0H291.9c-5.1,0-8.5,3.4-8.5,8.5v78.9c0,5.1,3.4,8.5,8.5,8.5H521c5.1,0,8.5-3.4,8.5-8.5V8.5C529.5,3.4,526.1,0,521,0z
		 M362.3,56H325c-5.1,0-8.5-3.4-8.5-8.5s3.4-8.5,8.5-8.5h37.3c5.1,0,8.5,3.4,8.5,8.5C370.8,52.6,367.4,56,362.3,56z M419.2,54.3
		c-3.4,3.4-8.5,3.4-11.9,0c-3.4-3.4-3.4-8.5,0-11.9c3.4-3.4,8.5-3.4,11.9,0C422.5,45,422.5,50.9,419.2,54.3z M448.8,54.3
		c-3.4,3.4-8.5,3.4-11.9,0c-3.4-3.4-3.4-8.5,0-11.9c3.4-3.4,8.5-3.4,11.9,0C452.2,45,452.2,50.9,448.8,54.3z M477.7,54.3
		c-3.4,3.4-8.5,3.4-11.9,0c-3.4-3.4-3.4-8.5,0-11.9c3.4-3.4,8.5-3.4,11.9,0C481.1,45,481.1,50.9,477.7,54.3z"/>
	<path d="M521,119.6H291.9c-5.1,0-8.5,4.2-8.5,8.5V207c0,4.2,3.4,8.5,8.5,8.5H521c5.1,0,8.5-4.2,8.5-8.5v-78.9
		C529.5,123.9,526.1,119.6,521,119.6z M362.3,176.5H325c-5.1,0-8.5-3.4-8.5-8.5s3.4-8.5,8.5-8.5h37.3c5.1,0,8.5,3.4,8.5,8.5
		C370.8,172.2,367.4,176.5,362.3,176.5z M419.2,173.9c-3.4,3.4-8.5,3.4-11.9,0s-3.4-8.5,0-11.9c3.4-3.4,8.5-3.4,11.9,0
		C422.5,165.5,422.5,170.5,419.2,173.9z M448.8,173.9c-3.4,3.4-8.5,3.4-11.9,0c-3.4-3.4-3.4-8.5,0-11.9c3.4-3.4,8.5-3.4,11.9,0
		C452.2,165.5,452.2,170.5,448.8,173.9z M477.7,173.9c-3.4,3.4-8.5,3.4-11.9,0c-3.4-3.4-3.4-8.5,0-11.9c3.4-3.4,8.5-3.4,11.9,0
		C481.1,165.5,481.1,170.5,477.7,173.9z"/>
	<path d="M521,240.1H291.9c-5.1,0-8.5,3.4-8.5,8.5v78.9c0,4.2,3.4,8.5,8.5,8.5H521c5.1,0,8.5-4.2,8.5-8.5v-78.9
		C529.5,243.5,526.1,240.1,521,240.1L521,240.1z M362.3,296.1H325c-5.1,0-8.5-3.4-8.5-8.5s3.4-8.5,8.5-8.5h37.3
		c5.1,0,8.5,3.4,8.5,8.5C370.8,292.7,367.4,296.1,362.3,296.1z M419.2,293.6c-3.4,3.4-8.5,3.4-11.9,0s-3.4-8.5,0-11.9
		c3.4-3.4,8.5-3.4,11.9,0C422.5,285.1,422.5,290.2,419.2,293.6z M448.8,293.6c-3.4,3.4-8.5,3.4-11.9,0c-3.4-3.4-3.4-8.5,0-11.9
		c3.4-3.4,8.5-3.4,11.9,0C452.2,285.1,452.2,290.2,448.8,293.6z M477.7,293.6c-3.4,3.4-8.5,3.4-11.9,0c-3.4-3.4-3.4-8.5,0-11.9
		c3.4-3.4,8.5-3.4,11.9,0C481.1,285.1,481.1,290.2,477.7,293.6z"/>
	<path d="M59.4,162.9c2.5,2.5,6.8,3.4,8.5,2.5c0.8,0,2.5-0.8,4.2-2.5l42.4-42.4c3.4-3.4,3.4-8.5,0-11.9c-3.4-3.4-8.5-3.4-11.9,0
		l-26.3,26.3c11-61.9,64.5-108.6,129-108.6c5.1,0,8.5-4.2,8.5-8.5c0-5.1-3.4-8.5-8.5-8.5c-74.7,0-137.4,56-146.8,129l-28.8-28.8
		c-3.4-3.4-8.5-3.4-11.9,0c-3.4,3.4-3.4,8.5,0,11.9L59.4,162.9z"/>
	<path d="M444.6,370.8c-4.2-0.8-9.3,1.7-10.2,6.8c-14.4,62.8-72.1,105.2-134.1,101.8l31.4-19.5c4.2-2.5,5.1-7.6,2.5-11.9
		c-2.5-4.2-7.6-5.1-11.9-2.5l-50.1,31.4c-0.8,0.8-7.6,5.1-3.4,11.9c1.7,2.5,33.9,54.3,32.2,50.9c2.5,4.2,8.5,5.1,11.9,2.5
		c4.2-2.5,5.1-7.6,2.5-11.9l-22.1-34.8c68.7,7.6,140.8-38.2,157.8-114.5C452.3,375.9,448.9,371.6,444.6,370.8L444.6,370.8z"/>
	<path d="M117.1,215.5C44.1,215.5,0,236.7,0,252s44.1,36.5,117.1,36.5c66.2,0,100.1-18.7,100.1-36.5S183.3,215.5,117.1,215.5
		L117.1,215.5z"/>
	<path d="M0,279.2v49.2c0,15.3,44.1,36.5,117.1,36.5c66.2,0,100.1-18.7,100.1-36.5v-45.8C171.4,316.5,45,310.6,0,279.2L0,279.2z"/>
	<path d="M0,355.5v50.9c0,15.3,45,36.5,117.1,36.5c66.2,0,100.1-18.7,100.1-36.5v-47.5C171.4,392.8,44.1,386.9,0,355.5L0,355.5z"/>
	<path d="M0,432.7v50.9c0,15.3,45,36.5,117.1,36.5c66.2,0,100.1-18.7,100.1-36.5v-47.5C171.4,470.1,45,464.1,0,432.7L0,432.7z"/>
</g>
</svg>
